<?xml version="1.0" encoding="UTF-8" standalone="no"?>
<!DOCTYPE svg PUBLIC "-//W3C//DTD SVG 1.1//EN" "http://www.w3.org/Graphics/SVG/1.1/DTD/svg11.dtd">
<!-- Created with Vectornator (http://vectornator.io/) -->
<svg height="100%" stroke-miterlimit="10" style="fill-rule:nonzero;clip-rule:evenodd;stroke-linecap:round;stroke-linejoin:round;" version="1.1" viewBox="0 0 1683.99 1190.7" width="100%" xml:space="preserve" xmlns="http://www.w3.org/2000/svg" xmlnsXlink="http://www.w3.org/1999/xlink">
<defs>
<filter color-interpolation-filters="sRGB" filterUnits="userSpaceOnUse" height="77.2703" id="Filter" width="87.1044" x="658.419" y="684.314">
<feDropShadow dx="0" dy="0" flood-color="#000000" flood-opacity="1" in="SourceGraphic" result="Shadow" stdDeviation="0"/>
</filter>
</defs>
<g id="Layer-1" >
<path d="M114.778 101.133C-7.10968 230.959 1.00625 964.555 133.064 1100.31C254.427 1225.07 543.922 1171.81 667.163 1161.56C790.404 1151.32 959.106 1147.87 1082.33 1164.68C1219.26 1183.35 1534.19 1212.23 1622.7 1117.85C1711.22 1023.48 1692.52 197.124 1587.03 81.9853C1471.34-44.2853 977.638 47.6939 728.285 45.877C541.111 44.5131 243.39-35.8535 114.778 101.133Z" fill="#2a84ff" fill-rule="nonzero" opacity="1" stroke="none"/>
</g>
<g id="Layer-3-copy" >
<path d="M210.962 668.025C210.962 668.025 240.265 652.907 264.229 642.001C267.33 656.001 271.644 685.085 271.644 685.085C271.644 685.085 283.491 650.306 290.651 628.738C312.852 616.612 350.801 598.638 387.582 579.491C367.571 632.401 346.206 672.308 335.507 695.516C370.646 710.39 408.411 731.868 424.929 741.366C403.01 748.022 354.156 764.575 324.022 778.005C305.095 766.788 288.849 752.669 288.849 752.669L296.793 790.203C296.793 790.203 266.769 803.262 235.701 825.135C231.704 756.465 210.962 668.025 210.962 668.025Z" fill="#ffffff" fill-rule="nonzero" opacity="1" stroke="none"/>
<path d="M360.783 771.029L383.941 762.265L385.698 774.594L393.188 759.206L419.722 749.878L404.595 785.224C404.595 785.224 435.573 814.455 435.575 814.43C435.576 814.405 419.636 819.659 408.531 823.851C401.635 819.133 395.046 812.825 390.706 809.555C390.877 813.189 395.24 828.714 395.24 828.714C395.24 828.714 382.488 833.505 369.056 838.52C368.098 815.487 360.783 771.029 360.783 771.029Z" fill="#ffffff" fill-rule="nonzero" opacity="1" stroke="none"/>
<path d="M477.598 731.781L499.694 725.819L501.106 747.284L509.913 723L544.84 714.309L524.269 754.737C524.269 754.737 551.994 780.972 551.997 780.948C551.999 780.923 536.533 784.506 523.482 787.67C516.636 783.659 509.81 779.504 505.448 776.075C505.468 779.693 505.877 792.395 505.877 792.395L481.45 799.312L477.598 731.781Z" fill="#ffffff" fill-rule="nonzero" opacity="1" stroke="none"/>
<path d="M368.09 641.69L387.918 714.327C387.918 714.327 414.046 728.993 431.37 738.492C461.876 729.098 503.417 718.183 534.192 710.615C530.2 686.234 524.933 652.759 524.933 652.759L448.229 682.24L447.661 675.43L524.618 646.508L517.806 594.998L440.842 626.705L440.725 618.636L517.806 587.764L508.946 516.43L396.69 574.807L368.09 641.69Z" fill="#ffffff" fill-rule="nonzero" opacity="1" stroke="none"/>
<path d="M514.107 513.377L572.378 482.773L625.569 520.811L618.176 458.499L733.081 400.154C733.081 400.154 735.919 553.61 740.389 673.509C704.506 678.019 693.637 679.228 663.398 683.428C639.416 662.511 592.211 625.234 592.211 625.234C592.211 625.234 598.207 684.345 598.78 695.986C582.302 699.318 563.732 703.178 539.443 709.359C537.197 691.652 514.107 513.377 514.107 513.377Z" fill="#ffffff" fill-rule="nonzero" opacity="1" stroke="none"/>
<path d="M236.925 832.68C247.626 823.62 260.774 816.993 260.774 816.993L275.118 823.349C275.118 823.349 277.872 814.183 279.188 806.82C290.159 800.109 306.204 793.421 306.204 793.421L293.336 841.404L302.136 865.969L283.01 874.337L274.01 849.927" fill="#ffffff" fill-rule="nonzero" opacity="1" stroke="none"/>
<path d="M336.003 783.405C377.818 783.253 369.535 852.325 333.421 850.606C297.308 848.886 294.189 783.556 336.003 783.405Z" fill="#ffffff" fill-rule="nonzero" opacity="1" stroke="none"/>
<path d="M447.491 742.418C490.612 744.273 483.216 808.221 445.644 807.188C408.071 806.155 404.37 740.563 447.491 742.418Z" fill="#ffffff" fill-rule="nonzero" opacity="1" stroke="none"/>
<path d="M537.111 761.77L548.305 713.543L568.822 708.905L620.325 767.454L591.837 772.54L577.274 756.27L563.87 759.512L560.805 778.866L556.852 779.745L537.111 761.77Z" fill="#ffffff" fill-rule="nonzero" opacity="1" stroke="none"/>
<path d="M658.419 761.585L683.123 687.578L706.271 684.314L745.523 751.224L716.37 754.022L705.366 734.957L693.558 736.807L684.099 757.73L658.419 761.585Z" fill="#ffffff" fill-rule="nonzero" filter="url(#Filter)" stroke="none" />
<path d="M573.172 708.015L608.184 700.871L616.37 713.923L621.396 698.262L634.433 695.777L642.764 707.11L646.246 693.58L678.845 688.437L655.319 761.993L646.481 763.338L636.407 752.775L630.641 765.885L623.695 766.989L573.172 708.015Z" fill="#ffffff" fill-rule="nonzero" opacity="1" stroke="none"/>
<path d="M739.246 677.866C573.615 694.906 361.917 753.156 257.087 815.082C249.874 819.343 243.167 823.621 237.016 827.905" fill="none" opacity="0" stroke="#f6b2c9" stroke-linecap="round" stroke-linejoin="round" stroke-width="5"/>
<path d="M745.12 753.813C527.241 773.495 411.119 821.841 265.975 884.558" fill="none" opacity="0" stroke="#f6b2c9" stroke-linecap="round" stroke-linejoin="round" stroke-width="5"/>
<path d="M730.859 396.743C557.181 484.571 366.369 588.33 207.916 665.224" fill="none" opacity="0" stroke="#f6b2c9" stroke-linecap="round" stroke-linejoin="round" stroke-width="5"/>
<path d="M446.462 770.56C451.222 770.543 450.279 777.966 446.168 777.782C442.057 777.597 441.702 770.576 446.462 770.56Z" fill="#2a84ff" fill-rule="nonzero" opacity="1" stroke="none"/>
<path d="M334.444 812.112C339.204 812.095 338.261 819.518 334.15 819.334C330.039 819.149 329.684 812.128 334.444 812.112Z" fill="#2a84ff" fill-rule="nonzero" opacity="1" stroke="none"/>
<path d="M563.962 747.909L565.83 740.14L571.257 745.983L563.962 747.909Z" fill="#2a84ff" fill-rule="nonzero" opacity="1" stroke="none"/>
<path d="M695.693 727.745L698.089 720.954L701.658 726.807L695.693 727.745Z" fill="#2a84ff" fill-rule="nonzero" opacity="1" stroke="none"/>
</g>
<clipPath id="ArtboardFrame">
<rect height="1190.7" width="1683.99" x="0" y="0"/>
</clipPath>
<g clip-path="url(#ArtboardFrame)" id="Curve" >
<path d="M1133.78 426.832C1142.83 422.417 1148.14 429.034 1153.98 430.672C1159.82 432.31 1171.15 414.022 1178.72 413.542C1186.28 413.063 1211.7 413.179 1211.75 417.787C1211.78 420.31 1198.08 422.059 1187.43 426.638C1178.64 430.42 1172.64 435.628 1172.55 438.544C1172.46 441.527 1180.61 445.64 1177.67 448.823C1174.72 452.006 1165.79 451.822 1162.37 450.064C1157.2 447.408 1152.63 441.516 1140.82 441.091C1131.91 440.77 1119.94 446.722 1110.4 451.167C1105.06 453.65 1124.73 431.248 1133.78 426.832Z" fill="#ffffff" fill-rule="nonzero" opacity="1" stroke="none"/>
<path d="M985.386 376.641C994.433 372.225 1003.32 382.521 1010.16 381.763C1017.01 381.006 1018.48 366.236 1030.32 363.351C1042.16 360.466 1063.3 362.987 1063.36 367.595C1063.39 370.118 1049.68 371.867 1039.04 376.446C1030.24 380.228 1024.75 383.52 1024.16 388.352C1023.56 393.185 1030.43 396.039 1029.27 398.631C1028.11 401.223 1012.37 401.685 1008.12 399.025C1003.87 396.366 1004.23 391.324 992.429 390.899C983.52 390.578 965.708 401.403 962.001 400.975C958.294 400.548 976.339 381.056 985.386 376.641Z" fill="#ffffff" fill-rule="nonzero" opacity="1" stroke="none"/>
<path d="M1332.76 431.616C1343.26 430.58 1350.64 441.516 1356.41 441.088C1360.33 440.797 1378.54 415.329 1391.35 417.577C1412.8 421.342 1419.56 430.785 1419.04 433.689C1418.11 438.81 1404.99 432.408 1390.34 435.389C1378.91 437.716 1370.36 442.08 1369.82 447.047C1369.27 452.014 1382.17 454.002 1378.54 457.411C1374.92 460.82 1333.14 456.95 1335.93 452.114C1338.71 447.277 1346.93 444.054 1332.39 443.599C1321.41 443.255 1314.9 454.154 1307.73 452.713C1300.71 451.302 1320.54 432.824 1332.76 431.616Z" fill="#ffffff" fill-rule="nonzero" opacity="1" stroke="none"/>
<path d="M1236.62 491.045C1244.65 487.815 1249.37 492.655 1254.55 493.853C1259.74 495.051 1269.81 482.593 1274.1 481.186C1278.39 479.779 1307.45 480.769 1305.83 484.429C1304.21 488.088 1291.2 490.294 1283.05 492.281C1274.93 494.262 1272.21 495.348 1271.04 499.611C1269.97 503.502 1276.23 505.082 1275.58 507.129C1274.92 509.176 1265.52 508.821 1259.75 508.275C1252.32 507.57 1249.3 500.893 1242.87 501.474C1235 502.184 1219.29 511.908 1215.86 508.843C1212.27 505.625 1228.59 494.274 1236.62 491.045Z" fill="#ffffff" fill-rule="nonzero" opacity="1" stroke="none"/>
<path d="M1033.49 519.325C1043.48 516.954 1048.38 522.056 1053.68 521.601C1061.2 520.955 1064.4 510.86 1070.97 509.466C1080.03 507.547 1082.48 508.253 1090.46 509.439C1098.45 510.625 1106.42 508.012 1104.75 511.282C1103.08 514.552 1088.08 518.574 1079.93 520.561C1071.81 522.542 1069.08 523.628 1067.91 527.891C1066.84 531.783 1072 534.819 1069.91 536.212C1068.52 537.139 1061.66 536.804 1058.87 536.316C1051.52 535.033 1046.17 529.174 1039.75 529.754C1031.88 530.465 1016.16 540.188 1012.74 537.124C1009.14 533.905 1025.07 521.325 1033.49 519.325Z" fill="#ffffff" fill-rule="nonzero" opacity="1" stroke="none"/>
<path d="M1450.74 1736.79C1554.22 1371.66 932.501 1335.89 974.192 1698.45C1086.9 1278.54 321.974 1354.48 363.297 1777.11C458.794 1277.49-275.643 1598.37 9.00119 1873.33C167.215 2026.16 1412.03 2009.56 1450.74 1736.79Z" fill="#ffffff" fill-rule="nonzero" opacity="1" stroke="none"/>
</g>
<g id="Layer-2" >
<path d="M251.84 255.565C235.388 153.076 406.122 116.347 421.788 226.926C437.453 337.505 268.292 358.053 251.84 255.565Z" fill="#fddf19" fill-rule="nonzero" opacity="1" stroke="none"/>
</g>
</svg>
